<svg version="1.1" viewBox="0.0 0.0 384.0 192.0" fill="none" stroke="none" stroke-linecap="square" stroke-miterlimit="10" xmlns:xlink="http://www.w3.org/1999/xlink" xmlns="http://www.w3.org/2000/svg"><clipPath id="p.0"><path d="m0 0l384.0 0l0 192.0l-384.0 0l0 -192.0z" clip-rule="nonzero"/></clipPath><g clip-path="url(#p.0)"><path fill="#000000" fill-opacity="0.0" d="m0 0l384.0 0l0 192.0l-384.0 0z" fill-rule="evenodd"/><defs><linearGradient id="p.1" gradientUnits="userSpaceOnUse" gradientTransform="matrix(9.61474073159752 0.0 0.0 9.61474073159752 0.0 0.0)" spreadMethod="pad" x1="-2.0418952637075503E-5" y1="-7.228940597875602E-5" x2="-5.522421874521503E-5" y2="9.614668442128544"><stop offset="0.0" stop-color="#4b8bbe"/><stop offset="1.0" stop-color="#306998"/></linearGradient></defs><path fill="url(#p.1)" d="m15.408536 0l161.18573 0c4.0862274 0 8.005096 1.6232468 10.894485 4.512645c2.8894043 2.8893976 4.5126495 6.808262 4.5126495 10.894487l0 77.03381c0 8.773804E-4 -7.171631E-4 0.0015945435 -0.0016021729 0.0015945435l-191.9984 -0.0015945435l0 0c-8.8365556E-4 0 -0.0016 -7.171631E-4 -0.0016 -0.0016021729l0.0016 -77.03221l0 0c0 -8.509125 6.898008 -15.407132 15.407132 -15.407132z" fill-rule="evenodd"/><defs><linearGradient id="p.2" gradientUnits="userSpaceOnUse" gradientTransform="matrix(9.596780691711903 0.0 0.0 9.596780691711903 0.0 0.0)" spreadMethod="pad" x1="20.006875803181348" y1="19.97383632038088" x2="20.00698263718122" y2="10.377055629263634"><stop offset="0.0" stop-color="#ffe873"/><stop offset="1.0" stop-color="#ffd43b"/></linearGradient></defs><path fill="url(#p.2)" d="m176.6506 191.68242l-161.30121 0c-4.0709105 0 -7.9750876 -1.6171722 -10.853657 -4.495743c-2.8785686 -2.8785553 -4.495732 -6.7827454 -4.495732 -10.853653l0 -76.745094c0 -8.8500977E-4 7.163444E-4 -0.0016021729 0.0016 -0.0016021729l191.9984 0.0016021729l0 0c8.8500977E-4 0 0.0016021729 7.171631E-4 0.0016021729 0.0015945435l-0.0016021729 76.7435l0 0c0 8.477234 -6.872162 15.349396 -15.349396 15.349396z" fill-rule="evenodd"/><g filter="url(#shadowFilter-p.3)"><use xlink:href="#p.3" transform="matrix(1.0 0.0 0.0 1.0 0.0 2.0)"/></g><defs><filter id="shadowFilter-p.3" filterUnits="userSpaceOnUse"><feGaussianBlur in="SourceAlpha" stdDeviation="2.0" result="blur"/><feComponentTransfer in="blur" color-interpolation-filters="sRGB"><feFuncR type="linear" slope="0" intercept="0.0"/><feFuncG type="linear" slope="0" intercept="0.0"/><feFuncB type="linear" slope="0" intercept="0.0"/><feFuncA type="linear" slope="0.5" intercept="0"/></feComponentTransfer></filter></defs><g id="p.3"><path fill="#000000" fill-opacity="0.0" d="m0.10498793 -6.0l192.0 0l0 164.0315l-192.0 0z" fill-rule="evenodd"/><path fill="#efefef" d="m44.495613 25.612495q0.4375 1.703125 0.4375 4.265625q0 2.453125 -0.4375 4.265625q0.4375 1.703125 0.4375 4.265625q0 2.453125 -0.4375 4.265625l-3.1875 0q0.421875 1.703125 0.421875 4.265625q0 2.453125 -0.421875 4.265625l-3.203125 0q0.421875 1.703125 0.421875 4.265625q0 2.453125 -0.421875 4.265625l-2.140625 0q0.4375 1.703125 0.4375 4.265625q0 2.453125 -0.4375 4.265625l-4.265625 0q0.4375 1.703125 0.4375 4.265625q0 2.453125 -0.4375 4.265625l-8.53125 0q-0.421875 -1.8125 -0.421875 -4.265625q0 -2.5625 0.421875 -4.265625l-4.265625 0q-0.421875 -1.8125 -0.421875 -4.265625q0 -2.5625 0.421875 -4.265625l-2.125 0q-0.4375 -1.8125 -0.4375 -4.265625q0 -2.5625 0.4375 -4.265625l-3.203125 0q-0.421875 -1.8125 -0.421875 -4.265625q0 -2.5625 0.421875 -4.265625l-3.203125 0q-0.421875 -1.8125 -0.421875 -4.265625q0 -2.5625 0.421875 -4.265625q-0.421875 -1.8125 -0.421875 -4.265625q0 -2.5625 0.421875 -4.265625q-0.421875 -1.828125 -0.421875 -4.28125q0 -2.546875 0.421875 -4.265625l8.53125 0q0.421875 1.71875 0.421875 4.265625q0 2.453125 -0.421875 4.28125q0.421875 1.703125 0.421875 4.265625q0 2.453125 -0.421875 4.265625q0.421875 1.703125 0.421875 4.265625q0 2.453125 -0.421875 4.265625l3.203125 0q0.421875 1.703125 0.421875 4.265625q0 2.453125 -0.421875 4.265625l3.203125 0q0.421875 1.703125 0.421875 4.265625q0 2.453125 -0.421875 4.265625l4.265625 0q-0.4375 -1.8125 -0.4375 -4.265625q0 -2.5625 0.4375 -4.265625l3.203125 0q-0.4375 -1.8125 -0.4375 -4.265625q0 -2.5625 0.4375 -4.265625l3.1875 0q-0.421875 -1.8125 -0.421875 -4.265625q0 -2.5625 0.421875 -4.265625q-0.421875 -1.8125 -0.421875 -4.265625q0 -2.5625 0.421875 -4.265625q-0.421875 -1.828125 -0.421875 -4.28125q0 -2.546875 0.421875 -4.265625l8.53125 0q0.4375 1.71875 0.4375 4.265625q0 2.453125 -0.4375 4.28125zm43.10002 29.859375q0 2.453125 -0.4375 4.265625l-4.265625 0q0.4375 1.703125 0.4375 4.265625q0 2.453125 -0.4375 4.265625q0.4375 1.703125 0.4375 4.265625q0 2.453125 -0.4375 4.265625l-8.53125 0q-0.421875 -1.8125 -0.421875 -4.265625q0 -2.5625 0.421875 -4.265625q-0.421875 -1.8125 -0.421875 -4.265625q0 -2.5625 0.421875 -4.265625l-21.328125 0q-0.421875 -1.8125 -0.421875 -4.265625q0 -2.5625 0.421875 -4.265625l3.203125 0q-0.421875 -1.8125 -0.421875 -4.265625q0 -2.5625 0.421875 -4.265625l3.203125 0q-0.4375 -1.8125 -0.4375 -4.265625q0 -2.5625 0.4375 -4.265625l3.1875 0q-0.421875 -1.8125 -0.421875 -4.265625q0 -2.5625 0.421875 -4.265625l5.34375 0q0.421875 1.703125 0.421875 4.265625q0 2.453125 -0.421875 4.265625l-3.203125 0q0.421875 1.703125 0.421875 4.265625q0 2.453125 -0.421875 4.265625l-3.203125 0q0.421875 1.703125 0.421875 4.265625q0 2.453125 -0.421875 4.265625l12.796875 0q-0.421875 -1.8125 -0.421875 -4.265625q0 -2.5625 0.421875 -4.265625q-0.421875 -1.8125 -0.421875 -4.265625q0 -2.5625 0.421875 -4.265625q-0.421875 -1.8125 -0.421875 -4.265625q0 -2.5625 0.421875 -4.265625l-6.390625 0q-0.4375 -1.828125 -0.4375 -4.28125q0 -2.546875 0.4375 -4.265625l14.921875 0q0.4375 1.71875 0.4375 4.265625q0 2.453125 -0.4375 4.28125q0.4375 1.703125 0.4375 4.265625q0 2.453125 -0.4375 4.265625q0.4375 1.703125 0.4375 4.265625q0 2.453125 -0.4375 4.265625q0.4375 1.703125 0.4375 4.265625q0 2.453125 -0.4375 4.265625l4.265625 0q0.4375 1.703125 0.4375 4.265625zm42.662514 -25.59375q0 2.453125 -0.4375 4.265625q0.4375 1.703125 0.4375 4.265625q0 2.453125 -0.4375 4.265625l-4.2656174 0q0.4375 1.703125 0.4375 4.265625q0 2.453125 -0.4375 4.265625l-21.328125 0q0.421875 1.703125 0.421875 4.265625q0 2.453125 -0.421875 4.265625q0.421875 1.703125 0.421875 4.265625q0 2.453125 -0.421875 4.265625q0.421875 1.703125 0.421875 4.265625q0 2.453125 -0.421875 4.265625l-8.53125 0q-0.421875 -1.8125 -0.421875 -4.265625q0 -2.5625 0.421875 -4.265625q-0.421875 -1.8125 -0.421875 -4.265625q0 -2.5625 0.421875 -4.265625q-0.421875 -1.8125 -0.421875 -4.265625q0 -2.5625 0.421875 -4.265625q-0.421875 -1.8125 -0.421875 -4.265625q0 -2.5625 0.421875 -4.265625q-0.421875 -1.8125 -0.421875 -4.265625q0 -2.5625 0.421875 -4.265625q-0.421875 -1.8125 -0.421875 -4.265625q0 -2.5625 0.421875 -4.265625q-0.421875 -1.828125 -0.421875 -4.28125q0 -2.546875 0.421875 -4.265625l29.859375 0q0.4375 1.71875 0.4375 4.265625q0 2.453125 -0.4375 4.28125l4.2656174 0q0.4375 1.703125 0.4375 4.265625zm-8.968742 12.796875q-0.421875 -1.8125 -0.421875 -4.265625q0 -2.5625 0.421875 -4.265625q-0.421875 -1.8125 -0.421875 -4.265625q0 -2.5625 0.421875 -4.265625l-17.0625 0q0.421875 1.703125 0.421875 4.265625q0 2.453125 -0.421875 4.265625q0.421875 1.703125 0.421875 4.265625q0 2.453125 -0.421875 4.265625l17.0625 0zm51.631264 -21.34375q0 2.453125 -0.4375 4.28125q0.4375 1.703125 0.4375 4.265625q0 2.453125 -0.4375 4.265625l-4.265625 0q0.4375 1.703125 0.4375 4.265625q0 2.453125 -0.4375 4.265625l-4.265625 0q0.4375 1.703125 0.4375 4.265625q0 2.453125 -0.4375 4.265625l-4.265625 0q0.4375 1.703125 0.4375 4.265625q0 2.453125 -0.4375 4.265625q0.4375 1.703125 0.4375 4.265625q0 2.453125 -0.4375 4.265625q0.4375 1.703125 0.4375 4.265625q0 2.453125 -0.4375 4.265625l-8.53125 0q-0.421875 -1.8125 -0.421875 -4.265625q0 -2.5625 0.421875 -4.265625q-0.421875 -1.8125 -0.421875 -4.265625q0 -2.5625 0.421875 -4.265625q-0.421875 -1.8125 -0.421875 -4.265625q0 -2.5625 0.421875 -4.265625l-4.265625 0q-0.421875 -1.8125 -0.421875 -4.265625q0 -2.5625 0.421875 -4.265625l-4.265625 0q-0.421875 -1.8125 -0.421875 -4.265625q0 -2.5625 0.421875 -4.265625l-4.265625 0q-0.421875 -1.8125 -0.421875 -4.265625q0 -2.5625 0.421875 -4.265625q-0.421875 -1.828125 -0.421875 -4.28125q0 -2.546875 0.421875 -4.265625l8.53125 0q0.421875 1.71875 0.421875 4.265625q0 2.453125 -0.421875 4.28125q0.421875 1.703125 0.421875 4.265625q0 2.453125 -0.421875 4.265625l4.265625 0q0.421875 1.703125 0.421875 4.265625q0 2.453125 -0.421875 4.265625l8.53125 0q-0.421875 -1.8125 -0.421875 -4.265625q0 -2.5625 0.421875 -4.265625l4.265625 0q-0.421875 -1.8125 -0.421875 -4.265625q0 -2.5625 0.421875 -4.265625q-0.421875 -1.828125 -0.421875 -4.28125q0 -2.546875 0.421875 -4.265625l8.53125 0q0.4375 1.71875 0.4375 4.265625z" fill-rule="nonzero"/><path fill="#efefef" d="m40.120613 142.94061q0 2.453125 -0.421875 4.265625l-5.328125 0q0.421875 1.703125 0.421875 4.265625q0 2.453125 -0.421875 4.265625l-5.328125 0q0.421875 1.703125 0.421875 4.265625q0 2.453125 -0.421875 4.265625l-5.34375 0q0.4375 1.703125 0.4375 4.265625q0 2.453125 -0.4375 4.265625l-8.53125 0q-0.421875 -1.8125 -0.421875 -4.265625q0 -2.5625 0.421875 -4.265625l5.34375 0q-0.4375 -1.8125 -0.4375 -4.265625q0 -2.5625 0.4375 -4.265625l5.328125 0q-0.421875 -1.8125 -0.421875 -4.265625q0 -2.5625 0.421875 -4.265625l5.328125 0q-0.421875 -1.8125 -0.421875 -4.265625q0 -2.5625 0.421875 -4.265625l-5.328125 0q-0.421875 -1.8125 -0.421875 -4.265625q0 -2.5625 0.421875 -4.265625l-5.328125 0q-0.4375 -1.8125 -0.4375 -4.265625q0 -2.5625 0.4375 -4.265625l-5.34375 0q-0.421875 -1.828125 -0.421875 -4.28125q0 -2.546875 0.421875 -4.265625l8.53125 0q0.4375 1.71875 0.4375 4.265625q0 2.453125 -0.4375 4.28125l5.34375 0q0.421875 1.703125 0.421875 4.265625q0 2.453125 -0.421875 4.265625l5.328125 0q0.421875 1.703125 0.421875 4.265625q0 2.453125 -0.421875 4.265625l5.328125 0q0.421875 1.703125 0.421875 4.265625zm42.66252 0q0 2.453125 -0.421875 4.265625l-5.328125 0q0.421875 1.703125 0.421875 4.265625q0 2.453125 -0.421875 4.265625l-5.328125 0q0.421875 1.703125 0.421875 4.265625q0 2.453125 -0.421875 4.265625l-5.34375 0q0.4375 1.703125 0.4375 4.265625q0 2.453125 -0.4375 4.265625l-8.53125 0q-0.421875 -1.8125 -0.421875 -4.265625q0 -2.5625 0.421875 -4.265625l5.34375 0q-0.4375 -1.8125 -0.4375 -4.265625q0 -2.5625 0.4375 -4.265625l5.328125 0q-0.421875 -1.8125 -0.421875 -4.265625q0 -2.5625 0.421875 -4.265625l5.328125 0q-0.421875 -1.8125 -0.421875 -4.265625q0 -2.5625 0.421875 -4.265625l-5.328125 0q-0.421875 -1.8125 -0.421875 -4.265625q0 -2.5625 0.421875 -4.265625l-5.328125 0q-0.4375 -1.8125 -0.4375 -4.265625q0 -2.5625 0.4375 -4.265625l-5.34375 0q-0.421875 -1.828125 -0.421875 -4.28125q0 -2.546875 0.421875 -4.265625l8.53125 0q0.4375 1.71875 0.4375 4.265625q0 2.453125 -0.4375 4.28125l5.34375 0q0.421875 1.703125 0.421875 4.265625q0 2.453125 -0.421875 4.265625l5.328125 0q0.421875 1.703125 0.421875 4.265625q0 2.453125 -0.421875 4.265625l5.328125 0q0.421875 1.703125 0.421875 4.265625zm42.66252 0q0 2.453125 -0.421875 4.265625l-5.328125 0q0.421875 1.703125 0.421875 4.265625q0 2.453125 -0.421875 4.265625l-5.328125 0q0.421875 1.703125 0.421875 4.265625q0 2.453125 -0.421875 4.265625l-5.34375 0q0.4375 1.703125 0.4375 4.265625q0 2.453125 -0.4375 4.265625l-8.53125 0q-0.421875 -1.8125 -0.421875 -4.265625q0 -2.5625 0.421875 -4.265625l5.34375 0q-0.4375 -1.8125 -0.4375 -4.265625q0 -2.5625 0.4375 -4.265625l5.328125 0q-0.421875 -1.8125 -0.421875 -4.265625q0 -2.5625 0.421875 -4.265625l5.328125 0q-0.421875 -1.8125 -0.421875 -4.265625q0 -2.5625 0.421875 -4.265625l-5.328125 0q-0.421875 -1.8125 -0.421875 -4.265625q0 -2.5625 0.421875 -4.265625l-5.328125 0q-0.4375 -1.8125 -0.4375 -4.265625q0 -2.5625 0.4375 -4.265625l-5.34375 0q-0.421875 -1.828125 -0.421875 -4.28125q0 -2.546875 0.421875 -4.265625l8.53125 0q0.4375 1.71875 0.4375 4.265625q0 2.453125 -0.4375 4.28125l5.34375 0q0.421875 1.703125 0.421875 4.265625q0 2.453125 -0.421875 4.265625l5.328125 0q0.421875 1.703125 0.421875 4.265625q0 2.453125 -0.421875 4.265625l5.328125 0q0.421875 1.703125 0.421875 4.265625zm47.037514 21.328125q0.4375 1.703125 0.4375 4.265625q0 2.453125 -0.4375 4.265625l-34.125 0q-0.421875 -1.8125 -0.421875 -4.265625q0 -2.5625 0.421875 -4.265625l34.125 0z" fill-rule="nonzero"/></g><g filter="url(#shadowFilter-p.4)"><use xlink:href="#p.4" transform="matrix(1.0 0.0 0.0 1.0 0.0 2.0)"/></g><defs><filter id="shadowFilter-p.4" filterUnits="userSpaceOnUse"><feGaussianBlur in="SourceAlpha" stdDeviation="2.0" result="blur"/><feComponentTransfer in="blur" color-interpolation-filters="sRGB"><feFuncR type="linear" slope="0" intercept="0.0"/><feFuncG type="linear" slope="0" intercept="0.0"/><feFuncB type="linear" slope="0" intercept="0.0"/><feFuncA type="linear" slope="0.5" intercept="0"/></feComponentTransfer></filter></defs><g id="p.4"><path fill="#000000" fill-opacity="0.0" d="m192.0 11.496063l242.99213 0l0 169.00787l-242.99213 0z" fill-rule="evenodd"/><path fill="#646464" d="m218.46875 33.93106q0 1.109375 -0.1875 1.921875q0.1875 0.765625 0.1875 1.921875q0 1.109375 -0.1875 1.921875l-1.921875 0q0.1875 0.765625 0.1875 1.921875q0 1.09375 -0.1875 1.921875l-9.59375 0q0.1875 0.765625 0.1875 1.921875q0 1.09375 -0.1875 1.90625q0.1875 0.78125 0.1875 1.921875q0 1.109375 -0.1875 1.921875q0.1875 0.765625 0.1875 1.921875q0 1.109375 -0.1875 1.921875l-3.84375 0q-0.1875 -0.8125 -0.1875 -1.921875q0 -1.15625 0.1875 -1.921875q-0.1875 -0.8125 -0.1875 -1.921875q0 -1.140625 0.1875 -1.921875q-0.1875 -0.8125 -0.1875 -1.90625q0 -1.15625 0.1875 -1.921875q-0.1875 -0.828125 -0.1875 -1.921875q0 -1.15625 0.1875 -1.921875q-0.1875 -0.8125 -0.1875 -1.921875q0 -1.15625 0.1875 -1.921875q-0.1875 -0.8125 -0.1875 -1.921875q0 -1.140625 0.1875 -1.921875q-0.1875 -0.8125 -0.1875 -1.90625q0 -1.15625 0.1875 -1.921875l13.4375 0q0.1875 0.765625 0.1875 1.921875q0 1.09375 -0.1875 1.90625l1.921875 0q0.1875 0.78125 0.1875 1.921875zm-4.03125 5.765625q-0.1875 -0.8125 -0.1875 -1.921875q0 -1.15625 0.1875 -1.921875q-0.1875 -0.8125 -0.1875 -1.921875q0 -1.140625 0.1875 -1.921875l-7.671875 0q0.1875 0.78125 0.1875 1.921875q0 1.109375 -0.1875 1.921875q0.1875 0.765625 0.1875 1.921875q0 1.109375 -0.1875 1.921875l7.671875 0zm23.231293 -1.921875q0 1.109375 -0.1875 1.921875l-1.4375 0q0.1875 0.765625 0.1875 1.921875q0 1.09375 -0.1875 1.921875l-1.4375 0q0.1875 0.765625 0.1875 1.921875q0 1.09375 -0.1875 1.90625l-0.96875 0q0.1875 0.78125 0.1875 1.921875q0 1.109375 -0.1875 1.921875l-1.4375 0q0.1875 0.765625 0.1875 1.921875q0 1.109375 -0.1875 1.921875l-0.953125 0q0.1875 0.765625 0.1875 1.921875q0 1.109375 -0.1875 1.921875l-1.921875 0q0.1875 0.765625 0.1875 1.921875q0 1.09375 -0.1875 1.921875l-5.765625 0q-0.1875 -0.828125 -0.1875 -1.921875q0 -1.15625 0.1875 -1.921875l3.84375 0q-0.1875 -0.8125 -0.1875 -1.921875q0 -1.15625 0.1875 -1.921875q-0.1875 -0.8125 -0.1875 -1.921875q0 -1.15625 0.1875 -1.921875l-1.921875 0q-0.1875 -0.8125 -0.1875 -1.921875q0 -1.140625 0.1875 -1.921875l-0.96875 0q-0.1875 -0.8125 -0.1875 -1.90625q0 -1.15625 0.1875 -1.921875l-1.4375 0q-0.1875 -0.828125 -0.1875 -1.921875q0 -1.15625 0.1875 -1.921875l-1.4375 0q-0.1875 -0.8125 -0.1875 -1.921875q0 -1.15625 0.1875 -1.921875l3.84375 0q0.1875 0.765625 0.1875 1.921875q0 1.109375 -0.1875 1.921875l1.4375 0q0.1875 0.765625 0.1875 1.921875q0 1.09375 -0.1875 1.921875l1.4375 0q0.203125 0.765625 0.203125 1.921875q0 1.09375 -0.203125 1.90625q0.203125 0.78125 0.203125 1.921875q0 1.109375 -0.203125 1.921875l1.4375 0q-0.1875 -0.8125 -0.1875 -1.921875q0 -1.140625 0.1875 -1.921875l0.96875 0q-0.1875 -0.8125 -0.1875 -1.90625q0 -1.15625 0.1875 -1.921875l1.4375 0q-0.1875 -0.828125 -0.1875 -1.921875q0 -1.15625 0.1875 -1.921875l1.4375 0q-0.1875 -0.8125 -0.1875 -1.921875q0 -1.15625 0.1875 -1.921875l3.84375 0q0.1875 0.765625 0.1875 1.921875zm17.090668 13.4375q0.1875 0.765625 0.1875 1.921875q0 1.109375 -0.1875 1.921875l-7.671875 0q-0.203125 -0.8125 -0.203125 -1.921875q0 -1.15625 0.203125 -1.921875l-1.921875 0q-0.203125 -0.8125 -0.203125 -1.921875q0 -1.140625 0.203125 -1.921875q-0.203125 -0.8125 -0.203125 -1.90625q0 -1.15625 0.203125 -1.921875q-0.203125 -0.828125 -0.203125 -1.921875q0 -1.15625 0.203125 -1.921875l-3.84375 0q-0.1875 -0.8125 -0.1875 -1.921875q0 -1.15625 0.1875 -1.921875l3.84375 0q-0.203125 -0.8125 -0.203125 -1.921875q0 -1.140625 0.203125 -1.921875q-0.203125 -0.8125 -0.203125 -1.90625q0 -1.15625 0.203125 -1.921875l3.828125 0q0.203125 0.765625 0.203125 1.921875q0 1.09375 -0.203125 1.90625q0.203125 0.78125 0.203125 1.921875q0 1.109375 -0.203125 1.921875l5.765625 0q0.1875 0.765625 0.1875 1.921875q0 1.109375 -0.1875 1.921875l-5.765625 0q0.203125 0.765625 0.203125 1.921875q0 1.09375 -0.203125 1.921875q0.203125 0.765625 0.203125 1.921875q0 1.09375 -0.203125 1.90625q0.203125 0.78125 0.203125 1.921875q0 1.109375 -0.203125 1.921875l5.765625 0zm9.793793 -13.4375q0 1.109375 -0.1875 1.921875l1.4375 0q0.1875 0.765625 0.1875 1.921875q0 1.09375 -0.1875 1.921875l-1.4375 0q0.1875 0.765625 0.1875 1.921875q0 1.09375 -0.1875 1.90625q0.1875 0.78125 0.1875 1.921875q0 1.109375 -0.1875 1.921875q0.1875 0.765625 0.1875 1.921875q0 1.109375 -0.1875 1.921875l-3.84375 0q-0.1875 -0.8125 -0.1875 -1.921875q0 -1.15625 0.1875 -1.921875q-0.1875 -0.8125 -0.1875 -1.921875q0 -1.140625 0.1875 -1.921875q-0.1875 -0.8125 -0.1875 -1.90625q0 -1.15625 0.1875 -1.921875q-0.1875 -0.828125 -0.1875 -1.921875q0 -1.15625 0.1875 -1.921875q-0.1875 -0.8125 -0.1875 -1.921875q0 -1.15625 0.1875 -1.921875q-0.1875 -0.8125 -0.1875 -1.921875q0 -1.140625 0.1875 -1.921875q-0.1875 -0.8125 -0.1875 -1.90625q0 -1.15625 0.1875 -1.921875l3.84375 0q0.1875 0.765625 0.1875 1.921875q0 1.09375 -0.1875 1.90625q0.1875 0.78125 0.1875 1.921875q0 1.109375 -0.1875 1.921875q0.1875 0.765625 0.1875 1.921875zm11.328125 5.765625q0.1875 0.765625 0.1875 1.921875q0 1.09375 -0.1875 1.90625q0.1875 0.78125 0.1875 1.921875q0 1.109375 -0.1875 1.921875q0.1875 0.765625 0.1875 1.921875q0 1.109375 -0.1875 1.921875l-3.84375 0q-0.1875 -0.8125 -0.1875 -1.921875q0 -1.15625 0.1875 -1.921875q-0.1875 -0.8125 -0.1875 -1.921875q0 -1.140625 0.1875 -1.921875q-0.1875 -0.8125 -0.1875 -1.90625q0 -1.15625 0.1875 -1.921875q-0.1875 -0.828125 -0.1875 -1.921875q0 -1.15625 0.1875 -1.921875l-6.234375 0q-0.1875 -0.8125 -0.1875 -1.921875q0 -1.15625 0.1875 -1.921875l7.671875 0q0.203125 0.765625 0.203125 1.921875q0 1.109375 -0.203125 1.921875l2.40625 0q0.1875 0.765625 0.1875 1.921875q0 1.09375 -0.1875 1.921875zm19.387543 1.921875q0 1.09375 -0.1875 1.90625l-1.4375 0q0.1875 0.78125 0.1875 1.921875q0 1.109375 -0.1875 1.921875l-2.40625 0q0.1875 0.765625 0.1875 1.921875q0 1.109375 -0.1875 1.921875l-7.671875 0q-0.203125 -0.8125 -0.203125 -1.921875q0 -1.15625 0.203125 -1.921875l-2.40625 0q-0.1875 -0.8125 -0.1875 -1.921875q0 -1.140625 0.1875 -1.921875l-1.4375 0q-0.1875 -0.8125 -0.1875 -1.90625q0 -1.15625 0.1875 -1.921875l1.4375 0q-0.1875 -0.828125 -0.1875 -1.921875q0 -1.15625 0.1875 -1.921875l2.40625 0q-0.203125 -0.8125 -0.203125 -1.921875q0 -1.15625 0.203125 -1.921875l7.671875 0q0.1875 0.765625 0.1875 1.921875q0 1.109375 -0.1875 1.921875l2.40625 0q0.1875 0.765625 0.1875 1.921875q0 1.09375 -0.1875 1.921875l1.4375 0q0.1875 0.765625 0.1875 1.921875zm-4.03125 1.90625q-0.1875 -0.8125 -0.1875 -1.90625q0 -1.15625 0.1875 -1.921875l-1.4375 0q-0.1875 -0.828125 -0.1875 -1.921875q0 -1.15625 0.1875 -1.921875l-4.796875 0q0.1875 0.765625 0.1875 1.921875q0 1.09375 -0.1875 1.921875l-1.4375 0q0.1875 0.765625 0.1875 1.921875q0 1.09375 -0.1875 1.90625l1.4375 0q0.1875 0.78125 0.1875 1.921875q0 1.109375 -0.1875 1.921875l4.796875 0q-0.1875 -0.8125 -0.1875 -1.921875q0 -1.140625 0.1875 -1.921875l1.4375 0zm11.231293 -9.59375q0 1.109375 -0.1875 1.921875l1.921875 0q0.1875 0.765625 0.1875 1.921875q0 1.09375 -0.1875 1.921875l-1.4375 0q0.1875 0.765625 0.1875 1.921875q0 1.09375 -0.1875 1.90625q0.1875 0.78125 0.1875 1.921875q0 1.109375 -0.1875 1.921875q0.1875 0.765625 0.1875 1.921875q0 1.109375 -0.1875 1.921875l-3.84375 0q-0.1875 -0.8125 -0.1875 -1.921875q0 -1.15625 0.1875 -1.921875q-0.1875 -0.8125 -0.1875 -1.921875q0 -1.140625 0.1875 -1.921875q-0.1875 -0.8125 -0.1875 -1.90625q0 -1.15625 0.1875 -1.921875q-0.1875 -0.828125 -0.1875 -1.921875q0 -1.15625 0.1875 -1.921875q-0.1875 -0.8125 -0.1875 -1.921875q0 -1.15625 0.1875 -1.921875l3.359375 0q0.1875 0.765625 0.1875 1.921875zm11.8125 5.765625q0.1875 0.765625 0.1875 1.921875q0 1.09375 -0.1875 1.90625q0.1875 0.78125 0.1875 1.921875q0 1.109375 -0.1875 1.921875q0.1875 0.765625 0.1875 1.921875q0 1.109375 -0.1875 1.921875l-3.84375 0q-0.1875 -0.8125 -0.1875 -1.921875q0 -1.15625 0.1875 -1.921875q-0.1875 -0.8125 -0.1875 -1.921875q0 -1.140625 0.1875 -1.921875q-0.1875 -0.8125 -0.1875 -1.90625q0 -1.15625 0.1875 -1.921875q-0.1875 -0.828125 -0.1875 -1.921875q0 -1.15625 0.1875 -1.921875l-6.234375 0q-0.1875 -0.8125 -0.1875 -1.921875q0 -1.15625 0.1875 -1.921875l7.671875 0q0.203125 0.765625 0.203125 1.921875q0 1.109375 -0.203125 1.921875l2.40625 0q0.1875 0.765625 0.1875 1.921875q0 1.09375 -0.1875 1.921875z" fill-rule="nonzero"/><path fill="#646464" d="m216.35938 78.852936q0.1875 0.765625 0.1875 1.921875q0 1.109375 -0.1875 1.921875l-5.765625 0q0.203125 0.765625 0.203125 1.921875q0 1.09375 -0.203125 1.921875q0.203125 0.765625 0.203125 1.921875q0 1.09375 -0.203125 1.90625q0.203125 0.78125 0.203125 1.921875q0 1.109375 -0.203125 1.921875l3.84375 0q0.1875 0.765625 0.1875 1.921875q0 1.109375 -0.1875 1.921875l-9.59375 0q-0.203125 -0.8125 -0.203125 -1.921875q0 -1.15625 0.203125 -1.921875l1.921875 0q-0.203125 -0.8125 -0.203125 -1.921875q0 -1.140625 0.203125 -1.921875q-0.203125 -0.8125 -0.203125 -1.90625q0 -1.15625 0.203125 -1.921875q-0.203125 -0.828125 -0.203125 -1.921875q0 -1.15625 0.203125 -1.921875l-1.921875 0q-0.203125 -0.8125 -0.203125 -1.921875q0 -1.15625 0.203125 -1.921875l1.921875 0q-0.203125 -0.8125 -0.203125 -1.921875q0 -1.140625 0.203125 -1.921875l1.921875 0q-0.203125 -0.8125 -0.203125 -1.90625q0 -1.15625 0.203125 -1.921875l7.671875 0q0.1875 0.765625 0.1875 1.921875q0 1.09375 -0.1875 1.90625l-5.765625 0q0.203125 0.78125 0.203125 1.921875q0 1.109375 -0.203125 1.921875l5.765625 0zm21.309418 9.609375q0 1.09375 -0.1875 1.90625l-1.4375 0q0.1875 0.78125 0.1875 1.921875q0 1.109375 -0.1875 1.921875l-2.40625 0q0.1875 0.765625 0.1875 1.921875q0 1.109375 -0.1875 1.921875l-7.671875 0q-0.203125 -0.8125 -0.203125 -1.921875q0 -1.15625 0.203125 -1.921875l-2.40625 0q-0.1875 -0.8125 -0.1875 -1.921875q0 -1.140625 0.1875 -1.921875l-1.4375 0q-0.1875 -0.8125 -0.1875 -1.90625q0 -1.15625 0.1875 -1.921875l1.4375 0q-0.1875 -0.828125 -0.1875 -1.921875q0 -1.15625 0.1875 -1.921875l2.40625 0q-0.203125 -0.8125 -0.203125 -1.921875q0 -1.15625 0.203125 -1.921875l7.671875 0q0.1875 0.765625 0.1875 1.921875q0 1.109375 -0.1875 1.921875l2.40625 0q0.1875 0.765625 0.1875 1.921875q0 1.09375 -0.1875 1.921875l1.4375 0q0.1875 0.765625 0.1875 1.921875zm-4.03125 1.90625q-0.1875 -0.8125 -0.1875 -1.90625q0 -1.15625 0.1875 -1.921875l-1.4375 0q-0.1875 -0.828125 -0.1875 -1.921875q0 -1.15625 0.1875 -1.921875l-4.796875 0q0.1875 0.765625 0.1875 1.921875q0 1.09375 -0.1875 1.921875l-1.4375 0q0.1875 0.765625 0.1875 1.921875q0 1.09375 -0.1875 1.90625l1.4375 0q0.1875 0.78125 0.1875 1.921875q0 1.109375 -0.1875 1.921875l4.796875 0q-0.1875 -0.8125 -0.1875 -1.921875q0 -1.140625 0.1875 -1.921875l1.4375 0zm23.043793 -7.671875q0.1875 0.765625 0.1875 1.921875q0 1.09375 -0.1875 1.921875l-3.84375 0q-0.1875 -0.828125 -0.1875 -1.921875q0 -1.15625 0.1875 -1.921875l-3.359375 0q0.1875 0.765625 0.1875 1.921875q0 1.09375 -0.1875 1.921875l-1.4375 0q0.1875 0.765625 0.1875 1.921875q0 1.09375 -0.1875 1.90625q0.1875 0.78125 0.1875 1.921875q0 1.109375 -0.1875 1.921875l2.875 0q0.203125 0.765625 0.203125 1.921875q0 1.109375 -0.203125 1.921875l-9.59375 0q-0.1875 -0.8125 -0.1875 -1.921875q0 -1.15625 0.1875 -1.921875l2.875 0q-0.1875 -0.8125 -0.1875 -1.921875q0 -1.140625 0.1875 -1.921875q-0.1875 -0.8125 -0.1875 -1.90625q0 -1.15625 0.1875 -1.921875q-0.1875 -0.828125 -0.1875 -1.921875q0 -1.15625 0.1875 -1.921875l-2.875 0q-0.1875 -0.8125 -0.1875 -1.921875q0 -1.15625 0.1875 -1.921875l4.796875 0q0.1875 0.765625 0.1875 1.921875q0 1.109375 -0.1875 1.921875l1.921875 0q-0.1875 -0.8125 -0.1875 -1.921875q0 -1.15625 0.1875 -1.921875l7.203125 0q0.1875 0.765625 0.1875 1.921875q0 1.109375 -0.1875 1.921875l1.4375 0z" fill-rule="nonzero"/><path fill="#646464" d="m216.35938 137.21231q0.1875 0.765625 0.1875 1.921875q0 1.109375 -0.1875 1.921875l-11.515625 0q-0.203125 -0.8125 -0.203125 -1.921875q0 -1.15625 0.203125 -1.921875l3.84375 0q-0.203125 -0.8125 -0.203125 -1.921875q0 -1.140625 0.203125 -1.921875q-0.203125 -0.8125 -0.203125 -1.90625q0 -1.15625 0.203125 -1.921875q-0.203125 -0.828125 -0.203125 -1.921875q0 -1.15625 0.203125 -1.921875q-0.203125 -0.8125 -0.203125 -1.921875q0 -1.15625 0.203125 -1.921875q-0.203125 -0.8125 -0.203125 -1.921875q0 -1.140625 0.203125 -1.921875l-2.890625 0q-0.1875 -0.8125 -0.1875 -1.90625q0 -1.15625 0.1875 -1.921875l6.71875 0q0.203125 0.765625 0.203125 1.921875q0 1.09375 -0.203125 1.90625q0.203125 0.78125 0.203125 1.921875q0 1.109375 -0.203125 1.921875q0.203125 0.765625 0.203125 1.921875q0 1.109375 -0.203125 1.921875q0.203125 0.765625 0.203125 1.921875q0 1.09375 -0.203125 1.921875q0.203125 0.765625 0.203125 1.921875q0 1.09375 -0.203125 1.90625q0.203125 0.78125 0.203125 1.921875q0 1.109375 -0.203125 1.921875l3.84375 0zm11.528168 -19.203125q-0.203125 -0.8125 -0.203125 -1.90625q0 -1.15625 0.203125 -1.921875l3.828125 0q0.203125 0.765625 0.203125 1.921875q0 1.09375 -0.203125 1.90625l-3.828125 0zm7.671875 19.203125q0.1875 0.765625 0.1875 1.921875q0 1.109375 -0.1875 1.921875l-11.515625 0q-0.203125 -0.8125 -0.203125 -1.921875q0 -1.15625 0.203125 -1.921875l3.84375 0q-0.203125 -0.8125 -0.203125 -1.921875q0 -1.140625 0.203125 -1.921875q-0.203125 -0.8125 -0.203125 -1.90625q0 -1.15625 0.203125 -1.921875q-0.203125 -0.828125 -0.203125 -1.921875q0 -1.15625 0.203125 -1.921875l-2.890625 0q-0.1875 -0.8125 -0.1875 -1.921875q0 -1.15625 0.1875 -1.921875l6.71875 0q0.203125 0.765625 0.203125 1.921875q0 1.109375 -0.203125 1.921875q0.203125 0.765625 0.203125 1.921875q0 1.09375 -0.203125 1.921875q0.203125 0.765625 0.203125 1.921875q0 1.09375 -0.203125 1.90625q0.203125 0.78125 0.203125 1.921875q0 1.109375 -0.203125 1.921875l3.84375 0zm9.309418 -13.4375q0 1.109375 -0.1875 1.921875l1.921875 0q0.1875 0.765625 0.1875 1.921875q0 1.09375 -0.1875 1.921875l-1.4375 0q0.1875 0.765625 0.1875 1.921875q0 1.09375 -0.1875 1.90625q0.1875 0.78125 0.1875 1.921875q0 1.109375 -0.1875 1.921875q0.1875 0.765625 0.1875 1.921875q0 1.109375 -0.1875 1.921875l-3.84375 0q-0.1875 -0.8125 -0.1875 -1.921875q0 -1.15625 0.1875 -1.921875q-0.1875 -0.8125 -0.1875 -1.921875q0 -1.140625 0.1875 -1.921875q-0.1875 -0.8125 -0.1875 -1.90625q0 -1.15625 0.1875 -1.921875q-0.1875 -0.828125 -0.1875 -1.921875q0 -1.15625 0.1875 -1.921875q-0.1875 -0.8125 -0.1875 -1.921875q0 -1.15625 0.1875 -1.921875l3.359375 0q0.1875 0.765625 0.1875 1.921875zm11.8125 5.765625q0.1875 0.765625 0.1875 1.921875q0 1.09375 -0.1875 1.90625q0.1875 0.78125 0.1875 1.921875q0 1.109375 -0.1875 1.921875q0.1875 0.765625 0.1875 1.921875q0 1.109375 -0.1875 1.921875l-3.84375 0q-0.1875 -0.8125 -0.1875 -1.921875q0 -1.15625 0.1875 -1.921875q-0.1875 -0.8125 -0.1875 -1.921875q0 -1.140625 0.1875 -1.921875q-0.1875 -0.8125 -0.1875 -1.90625q0 -1.15625 0.1875 -1.921875q-0.1875 -0.828125 -0.1875 -1.921875q0 -1.15625 0.1875 -1.921875l-6.234375 0q-0.1875 -0.8125 -0.1875 -1.921875q0 -1.15625 0.1875 -1.921875l7.671875 0q0.203125 0.765625 0.203125 1.921875q0 1.109375 -0.203125 1.921875l2.40625 0q0.1875 0.765625 0.1875 1.921875q0 1.09375 -0.1875 1.921875zm19.200043 -3.84375q0.1875 0.765625 0.1875 1.921875q0 1.09375 -0.1875 1.921875q0.1875 0.765625 0.1875 1.921875q0 1.09375 -0.1875 1.90625q0.1875 0.78125 0.1875 1.921875q0 1.109375 -0.1875 1.921875q0.1875 0.765625 0.1875 1.921875q0 1.109375 -0.1875 1.921875l-1.921875 0q0.1875 0.765625 0.1875 1.921875q0 1.109375 -0.1875 1.921875l-1.921875 0q0.1875 0.765625 0.1875 1.921875q0 1.09375 -0.1875 1.921875l-7.671875 0q-0.203125 -0.828125 -0.203125 -1.921875q0 -1.15625 0.203125 -1.921875l5.75 0q-0.1875 -0.8125 -0.1875 -1.921875q0 -1.15625 0.1875 -1.921875l1.921875 0q-0.1875 -0.8125 -0.1875 -1.921875q0 -1.15625 0.1875 -1.921875l-1.921875 0q-0.1875 -0.8125 -0.1875 -1.921875q0 -1.140625 0.1875 -1.921875l1.921875 0q-0.1875 -0.8125 -0.1875 -1.90625q0 -1.15625 0.1875 -1.921875q-0.1875 -0.828125 -0.1875 -1.921875q0 -1.15625 0.1875 -1.921875l-6.234375 0q0.1875 0.765625 0.1875 1.921875q0 1.09375 -0.1875 1.921875l-1.4375 0q0.1875 0.765625 0.1875 1.921875q0 1.09375 -0.1875 1.90625l1.4375 0q0.1875 0.78125 0.1875 1.921875q0 1.109375 -0.1875 1.921875l4.3125 0q0.203125 0.765625 0.203125 1.921875q0 1.109375 -0.203125 1.921875l-5.75 0q-0.203125 -0.8125 -0.203125 -1.921875q0 -1.15625 0.203125 -1.921875l-2.40625 0q-0.1875 -0.8125 -0.1875 -1.921875q0 -1.140625 0.1875 -1.921875l-1.4375 0q-0.1875 -0.8125 -0.1875 -1.90625q0 -1.15625 0.1875 -1.921875l1.4375 0q-0.1875 -0.828125 -0.1875 -1.921875q0 -1.15625 0.1875 -1.921875l2.40625 0q-0.203125 -0.8125 -0.203125 -1.921875q0 -1.15625 0.203125 -1.921875l11.515625 0q0.1875 0.765625 0.1875 1.921875q0 1.109375 -0.1875 1.921875zm9.309418 9.59375q0 1.109375 -0.1875 1.921875l4.796875 0q0.1875 0.765625 0.1875 1.921875q0 1.109375 -0.1875 1.921875l-7.6875 0q-0.1875 -0.8125 -0.1875 -1.921875q0 -1.15625 0.1875 -1.921875l-2.390625 0q-0.1875 -0.8125 -0.1875 -1.921875q0 -1.140625 0.1875 -1.921875q-0.1875 -0.8125 -0.1875 -1.90625q0 -1.15625 0.1875 -1.921875q-0.1875 -0.828125 -0.1875 -1.921875q0 -1.15625 0.1875 -1.921875q-0.1875 -0.8125 -0.1875 -1.921875q0 -1.15625 0.1875 -1.921875l3.84375 0q0.1875 0.765625 0.1875 1.921875q0 1.109375 -0.1875 1.921875q0.1875 0.765625 0.1875 1.921875q0 1.09375 -0.1875 1.921875q0.1875 0.765625 0.1875 1.921875q0 1.09375 -0.1875 1.90625l1.4375 0q0.1875 0.78125 0.1875 1.921875zm9.890625 -9.59375q0.1875 0.765625 0.1875 1.921875q0 1.09375 -0.1875 1.921875q0.1875 0.765625 0.1875 1.921875q0 1.09375 -0.1875 1.90625q0.1875 0.78125 0.1875 1.921875q0 1.109375 -0.1875 1.921875q0.1875 0.765625 0.1875 1.921875q0 1.109375 -0.1875 1.921875l-3.84375 0q-0.1875 -0.8125 -0.1875 -1.921875q0 -1.15625 0.1875 -1.921875l-1.4375 0q-0.1875 -0.8125 -0.1875 -1.921875q0 -1.140625 0.1875 -1.921875l1.4375 0q-0.1875 -0.8125 -0.1875 -1.90625q0 -1.15625 0.1875 -1.921875q-0.1875 -0.828125 -0.1875 -1.921875q0 -1.15625 0.1875 -1.921875q-0.1875 -0.8125 -0.1875 -1.921875q0 -1.15625 0.1875 -1.921875l3.84375 0q0.1875 0.765625 0.1875 1.921875q0 1.109375 -0.1875 1.921875zm9.606293 -7.6875q-0.203125 -0.8125 -0.203125 -1.90625q0 -1.15625 0.203125 -1.921875l3.828125 0q0.203125 0.765625 0.203125 1.921875q0 1.09375 -0.203125 1.90625l-3.828125 0zm7.671875 19.203125q0.1875 0.765625 0.1875 1.921875q0 1.109375 -0.1875 1.921875l-11.515625 0q-0.203125 -0.8125 -0.203125 -1.921875q0 -1.15625 0.203125 -1.921875l3.84375 0q-0.203125 -0.8125 -0.203125 -1.921875q0 -1.140625 0.203125 -1.921875q-0.203125 -0.8125 -0.203125 -1.90625q0 -1.15625 0.203125 -1.921875q-0.203125 -0.828125 -0.203125 -1.921875q0 -1.15625 0.203125 -1.921875l-2.890625 0q-0.1875 -0.8125 -0.1875 -1.921875q0 -1.15625 0.1875 -1.921875l6.71875 0q0.203125 0.765625 0.203125 1.921875q0 1.109375 -0.203125 1.921875q0.203125 0.765625 0.203125 1.921875q0 1.09375 -0.203125 1.921875q0.203125 0.765625 0.203125 1.921875q0 1.09375 -0.203125 1.90625q0.203125 0.78125 0.203125 1.921875q0 1.109375 -0.203125 1.921875l3.84375 0zm20.356293 -1.921875q0 1.109375 -0.203125 1.921875l-1.90625 0q0.1875 0.765625 0.1875 1.921875q0 1.109375 -0.1875 1.921875l-10.5625 0q-0.203125 -0.8125 -0.203125 -1.921875q0 -1.15625 0.203125 -1.921875l8.640625 0q-0.203125 -0.8125 -0.203125 -1.921875q0 -1.140625 0.203125 -1.921875l-7.6875 0q-0.1875 -0.8125 -0.1875 -1.90625q0 -1.15625 0.1875 -1.921875l-1.921875 0q-0.1875 -0.828125 -0.1875 -1.921875q0 -1.15625 0.1875 -1.921875l1.921875 0q-0.1875 -0.8125 -0.1875 -1.921875q0 -1.15625 0.1875 -1.921875l10.5625 0q0.1875 0.765625 0.1875 1.921875q0 1.109375 -0.1875 1.921875l-8.640625 0q0.1875 0.765625 0.1875 1.921875q0 1.09375 -0.1875 1.921875l7.6875 0q0.1875 0.765625 0.1875 1.921875q0 1.09375 -0.1875 1.90625l1.90625 0q0.203125 0.78125 0.203125 1.921875zm18.043793 1.921875q0.1875 0.765625 0.1875 1.921875q0 1.109375 -0.1875 1.921875l-7.671875 0q-0.203125 -0.8125 -0.203125 -1.921875q0 -1.15625 0.203125 -1.921875l-1.921875 0q-0.203125 -0.8125 -0.203125 -1.921875q0 -1.140625 0.203125 -1.921875q-0.203125 -0.8125 -0.203125 -1.90625q0 -1.15625 0.203125 -1.921875q-0.203125 -0.828125 -0.203125 -1.921875q0 -1.15625 0.203125 -1.921875l-3.84375 0q-0.1875 -0.8125 -0.1875 -1.921875q0 -1.15625 0.1875 -1.921875l3.84375 0q-0.203125 -0.8125 -0.203125 -1.921875q0 -1.140625 0.203125 -1.921875q-0.203125 -0.8125 -0.203125 -1.90625q0 -1.15625 0.203125 -1.921875l3.828125 0q0.203125 0.765625 0.203125 1.921875q0 1.09375 -0.203125 1.90625q0.203125 0.78125 0.203125 1.921875q0 1.109375 -0.203125 1.921875l5.765625 0q0.1875 0.765625 0.1875 1.921875q0 1.109375 -0.1875 1.921875l-5.765625 0q0.203125 0.765625 0.203125 1.921875q0 1.09375 -0.203125 1.921875q0.203125 0.765625 0.203125 1.921875q0 1.09375 -0.203125 1.90625q0.203125 0.78125 0.203125 1.921875q0 1.109375 -0.203125 1.921875l5.765625 0zm20.356293 -1.921875q0 1.109375 -0.203125 1.921875l-1.90625 0q0.1875 0.765625 0.1875 1.921875q0 1.109375 -0.1875 1.921875l-10.5625 0q-0.203125 -0.8125 -0.203125 -1.921875q0 -1.15625 0.203125 -1.921875l8.640625 0q-0.203125 -0.8125 -0.203125 -1.921875q0 -1.140625 0.203125 -1.921875l-7.6875 0q-0.1875 -0.8125 -0.1875 -1.90625q0 -1.15625 0.1875 -1.921875l-1.921875 0q-0.1875 -0.828125 -0.1875 -1.921875q0 -1.15625 0.1875 -1.921875l1.921875 0q-0.1875 -0.8125 -0.1875 -1.921875q0 -1.15625 0.1875 -1.921875l10.5625 0q0.1875 0.765625 0.1875 1.921875q0 1.109375 -0.1875 1.921875l-8.640625 0q0.1875 0.765625 0.1875 1.921875q0 1.09375 -0.1875 1.921875l7.6875 0q0.1875 0.765625 0.1875 1.921875q0 1.09375 -0.1875 1.90625l1.90625 0q0.203125 0.78125 0.203125 1.921875z" fill-rule="nonzero"/></g></g></svg>