<svg version="1.1" viewBox="0.0 0.0 192.0 192.0" fill="none" stroke="none" stroke-linecap="square" stroke-miterlimit="10" xmlns:xlink="http://www.w3.org/1999/xlink" xmlns="http://www.w3.org/2000/svg"><clipPath id="p.0"><path d="m0 0l192.0 0l0 192.0l-192.0 0l0 -192.0z" clip-rule="nonzero"/></clipPath><g clip-path="url(#p.0)"><path fill="#000000" fill-opacity="0.0" d="m0 0l192.0 0l0 192.0l-192.0 0z" fill-rule="evenodd"/><defs><linearGradient id="p.1" gradientUnits="userSpaceOnUse" gradientTransform="matrix(9.61474073159752 0.0 0.0 9.61474073159752 0.0 0.0)" spreadMethod="pad" x1="-9.341492199945828E-5" y1="-7.228940597875602E-5" x2="-1.282201901414883E-4" y2="9.614668442128544"><stop offset="0.0" stop-color="#4b8bbe"/><stop offset="1.0" stop-color="#306998"/></linearGradient></defs><path fill="url(#p.1)" d="m15.407834 0l161.18573 0c4.0862274 0 8.005096 1.6232468 10.894485 4.512645c2.8894043 2.8893976 4.5126495 6.808262 4.5126495 10.894487l0 77.03381c0 8.773804E-4 -7.171631E-4 0.0015945435 -0.0016021729 0.0015945435l-191.9984 -0.0015945435l0 0c-8.8365556E-4 0 -0.0016 -7.171631E-4 -0.0016 -0.0016021729l0.0016 -77.03221l0 0c0 -8.509125 6.898008 -15.407132 15.407132 -15.407132z" fill-rule="evenodd"/><defs><linearGradient id="p.2" gradientUnits="userSpaceOnUse" gradientTransform="matrix(9.596231549241207 0.0 0.0 9.596231549241207 0.0 0.0)" spreadMethod="pad" x1="20.007437345710926" y1="19.97497931925184" x2="20.007544185824354" y2="10.378747770605388"><stop offset="0.0" stop-color="#ffe873"/><stop offset="1.0" stop-color="#ffd43b"/></linearGradient></defs><path fill="url(#p.2)" d="m176.64677 191.68242l-161.25145 0c-4.070445 0 -7.974176 -1.6169891 -10.852415 -4.495224c-2.8782394 -2.8782349 -4.4952173 -6.781967 -4.4952173 -10.852417l0 -76.73632c0 -8.8500977E-4 7.161461E-4 -0.0015945435 0.0015995577 -0.0015945435l191.9451 0.0015945435l0 0c8.8500977E-4 0 0.0016021729 7.171631E-4 0.0016021729 0.0016021729l-0.0016021729 76.73472l0 0c0 8.476273 -6.8713684 15.347641 -15.347626 15.347641z" fill-rule="evenodd"/><g filter="url(#shadowFilter-p.3)"><use xlink:href="#p.3" transform="matrix(1.0 0.0 0.0 1.0 0.0 2.0)"/></g><defs><filter id="shadowFilter-p.3" filterUnits="userSpaceOnUse"><feGaussianBlur in="SourceAlpha" stdDeviation="2.0" result="blur"/><feComponentTransfer in="blur" color-interpolation-filters="sRGB"><feFuncR type="linear" slope="0" intercept="0.0"/><feFuncG type="linear" slope="0" intercept="0.0"/><feFuncB type="linear" slope="0" intercept="0.0"/><feFuncA type="linear" slope="0.5" intercept="0"/></feComponentTransfer></filter></defs><g id="p.3"><path fill="#000000" fill-opacity="0.0" d="m0.052493963 -6.0l191.93701 0l0 164.0315l-191.93701 0z" fill-rule="evenodd"/><path fill="#efefef" d="m44.44312 25.612495q0.4375 1.703125 0.4375 4.265625q0 2.453125 -0.4375 4.265625q0.4375 1.703125 0.4375 4.265625q0 2.453125 -0.4375 4.265625l-3.1875 0q0.421875 1.703125 0.421875 4.265625q0 2.453125 -0.421875 4.265625l-3.203125 0q0.421875 1.703125 0.421875 4.265625q0 2.453125 -0.421875 4.265625l-2.140625 0q0.4375 1.703125 0.4375 4.265625q0 2.453125 -0.4375 4.265625l-4.265625 0q0.4375 1.703125 0.4375 4.265625q0 2.453125 -0.4375 4.265625l-8.53125 0q-0.421875 -1.8125 -0.421875 -4.265625q0 -2.5625 0.421875 -4.265625l-4.265625 0q-0.421875 -1.8125 -0.421875 -4.265625q0 -2.5625 0.421875 -4.265625l-2.125 0q-0.4375 -1.8125 -0.4375 -4.265625q0 -2.5625 0.4375 -4.265625l-3.203125 0q-0.421875 -1.8125 -0.421875 -4.265625q0 -2.5625 0.421875 -4.265625l-3.203125 0q-0.421875 -1.8125 -0.421875 -4.265625q0 -2.5625 0.421875 -4.265625q-0.421875 -1.8125 -0.421875 -4.265625q0 -2.5625 0.421875 -4.265625q-0.421875 -1.828125 -0.421875 -4.28125q0 -2.546875 0.421875 -4.265625l8.53125 0q0.421875 1.71875 0.421875 4.265625q0 2.453125 -0.421875 4.28125q0.421875 1.703125 0.421875 4.265625q0 2.453125 -0.421875 4.265625q0.421875 1.703125 0.421875 4.265625q0 2.453125 -0.421875 4.265625l3.203125 0q0.421875 1.703125 0.421875 4.265625q0 2.453125 -0.421875 4.265625l3.203125 0q0.421875 1.703125 0.421875 4.265625q0 2.453125 -0.421875 4.265625l4.265625 0q-0.4375 -1.8125 -0.4375 -4.265625q0 -2.5625 0.4375 -4.265625l3.203125 0q-0.4375 -1.8125 -0.4375 -4.265625q0 -2.5625 0.4375 -4.265625l3.1875 0q-0.421875 -1.8125 -0.421875 -4.265625q0 -2.5625 0.421875 -4.265625q-0.421875 -1.8125 -0.421875 -4.265625q0 -2.5625 0.421875 -4.265625q-0.421875 -1.828125 -0.421875 -4.28125q0 -2.546875 0.421875 -4.265625l8.53125 0q0.4375 1.71875 0.4375 4.265625q0 2.453125 -0.4375 4.28125zm43.100018 29.859375q0 2.453125 -0.4375 4.265625l-4.265625 0q0.4375 1.703125 0.4375 4.265625q0 2.453125 -0.4375 4.265625q0.4375 1.703125 0.4375 4.265625q0 2.453125 -0.4375 4.265625l-8.53125 0q-0.421875 -1.8125 -0.421875 -4.265625q0 -2.5625 0.421875 -4.265625q-0.421875 -1.8125 -0.421875 -4.265625q0 -2.5625 0.421875 -4.265625l-21.328121 0q-0.421875 -1.8125 -0.421875 -4.265625q0 -2.5625 0.421875 -4.265625l3.203125 0q-0.421875 -1.8125 -0.421875 -4.265625q0 -2.5625 0.421875 -4.265625l3.203125 0q-0.4375 -1.8125 -0.4375 -4.265625q0 -2.5625 0.4375 -4.265625l3.1875 0q-0.421875 -1.8125 -0.421875 -4.265625q0 -2.5625 0.421875 -4.265625l5.343746 0q0.421875 1.703125 0.421875 4.265625q0 2.453125 -0.421875 4.265625l-3.203125 0q0.421875 1.703125 0.421875 4.265625q0 2.453125 -0.421875 4.265625l-3.2031212 0q0.421875 1.703125 0.421875 4.265625q0 2.453125 -0.421875 4.265625l12.796871 0q-0.421875 -1.8125 -0.421875 -4.265625q0 -2.5625 0.421875 -4.265625q-0.421875 -1.8125 -0.421875 -4.265625q0 -2.5625 0.421875 -4.265625q-0.421875 -1.8125 -0.421875 -4.265625q0 -2.5625 0.421875 -4.265625l-6.390625 0q-0.4375 -1.828125 -0.4375 -4.28125q0 -2.546875 0.4375 -4.265625l14.921875 0q0.4375 1.71875 0.4375 4.265625q0 2.453125 -0.4375 4.28125q0.4375 1.703125 0.4375 4.265625q0 2.453125 -0.4375 4.265625q0.4375 1.703125 0.4375 4.265625q0 2.453125 -0.4375 4.265625q0.4375 1.703125 0.4375 4.265625q0 2.453125 -0.4375 4.265625l4.265625 0q0.4375 1.703125 0.4375 4.265625zm42.66252 -25.59375q0 2.453125 -0.4375 4.265625q0.4375 1.703125 0.4375 4.265625q0 2.453125 -0.4375 4.265625l-4.265625 0q0.4375 1.703125 0.4375 4.265625q0 2.453125 -0.4375 4.265625l-21.328125 0q0.421875 1.703125 0.421875 4.265625q0 2.453125 -0.421875 4.265625q0.421875 1.703125 0.421875 4.265625q0 2.453125 -0.421875 4.265625q0.421875 1.703125 0.421875 4.265625q0 2.453125 -0.421875 4.265625l-8.53125 0q-0.421875 -1.8125 -0.421875 -4.265625q0 -2.5625 0.421875 -4.265625q-0.421875 -1.8125 -0.421875 -4.265625q0 -2.5625 0.421875 -4.265625q-0.421875 -1.8125 -0.421875 -4.265625q0 -2.5625 0.421875 -4.265625q-0.421875 -1.8125 -0.421875 -4.265625q0 -2.5625 0.421875 -4.265625q-0.421875 -1.8125 -0.421875 -4.265625q0 -2.5625 0.421875 -4.265625q-0.421875 -1.8125 -0.421875 -4.265625q0 -2.5625 0.421875 -4.265625q-0.421875 -1.828125 -0.421875 -4.28125q0 -2.546875 0.421875 -4.265625l29.859375 0q0.4375 1.71875 0.4375 4.265625q0 2.453125 -0.4375 4.28125l4.265625 0q0.4375 1.703125 0.4375 4.265625zm-8.96875 12.796875q-0.421875 -1.8125 -0.421875 -4.265625q0 -2.5625 0.421875 -4.265625q-0.421875 -1.8125 -0.421875 -4.265625q0 -2.5625 0.421875 -4.265625l-17.0625 0q0.421875 1.703125 0.421875 4.265625q0 2.453125 -0.421875 4.265625q0.421875 1.703125 0.421875 4.265625q0 2.453125 -0.421875 4.265625l17.0625 0zm51.63127 -21.34375q0 2.453125 -0.4375 4.28125q0.4375 1.703125 0.4375 4.265625q0 2.453125 -0.4375 4.265625l-4.265625 0q0.4375 1.703125 0.4375 4.265625q0 2.453125 -0.4375 4.265625l-4.265625 0q0.4375 1.703125 0.4375 4.265625q0 2.453125 -0.4375 4.265625l-4.265625 0q0.4375 1.703125 0.4375 4.265625q0 2.453125 -0.4375 4.265625q0.4375 1.703125 0.4375 4.265625q0 2.453125 -0.4375 4.265625q0.4375 1.703125 0.4375 4.265625q0 2.453125 -0.4375 4.265625l-8.53125 0q-0.421875 -1.8125 -0.421875 -4.265625q0 -2.5625 0.421875 -4.265625q-0.421875 -1.8125 -0.421875 -4.265625q0 -2.5625 0.421875 -4.265625q-0.421875 -1.8125 -0.421875 -4.265625q0 -2.5625 0.421875 -4.265625l-4.265625 0q-0.421875 -1.8125 -0.421875 -4.265625q0 -2.5625 0.421875 -4.265625l-4.265625 0q-0.421875 -1.8125 -0.421875 -4.265625q0 -2.5625 0.421875 -4.265625l-4.265625 0q-0.421875 -1.8125 -0.421875 -4.265625q0 -2.5625 0.421875 -4.265625q-0.421875 -1.828125 -0.421875 -4.28125q0 -2.546875 0.421875 -4.265625l8.53125 0q0.421875 1.71875 0.421875 4.265625q0 2.453125 -0.421875 4.28125q0.421875 1.703125 0.421875 4.265625q0 2.453125 -0.421875 4.265625l4.265625 0q0.421875 1.703125 0.421875 4.265625q0 2.453125 -0.421875 4.265625l8.53125 0q-0.421875 -1.8125 -0.421875 -4.265625q0 -2.5625 0.421875 -4.265625l4.265625 0q-0.421875 -1.8125 -0.421875 -4.265625q0 -2.5625 0.421875 -4.265625q-0.421875 -1.828125 -0.421875 -4.28125q0 -2.546875 0.421875 -4.265625l8.53125 0q0.4375 1.71875 0.4375 4.265625z" fill-rule="nonzero"/><path fill="#efefef" d="m40.06812 142.94061q0 2.453125 -0.421875 4.265625l-5.328125 0q0.421875 1.703125 0.421875 4.265625q0 2.453125 -0.421875 4.265625l-5.328125 0q0.421875 1.703125 0.421875 4.265625q0 2.453125 -0.421875 4.265625l-5.34375 0q0.4375 1.703125 0.4375 4.265625q0 2.453125 -0.4375 4.265625l-8.53125 0q-0.421875 -1.8125 -0.421875 -4.265625q0 -2.5625 0.421875 -4.265625l5.34375 0q-0.4375 -1.8125 -0.4375 -4.265625q0 -2.5625 0.4375 -4.265625l5.328125 0q-0.421875 -1.8125 -0.421875 -4.265625q0 -2.5625 0.421875 -4.265625l5.328125 0q-0.421875 -1.8125 -0.421875 -4.265625q0 -2.5625 0.421875 -4.265625l-5.328125 0q-0.421875 -1.8125 -0.421875 -4.265625q0 -2.5625 0.421875 -4.265625l-5.328125 0q-0.4375 -1.8125 -0.4375 -4.265625q0 -2.5625 0.4375 -4.265625l-5.34375 0q-0.421875 -1.828125 -0.421875 -4.28125q0 -2.546875 0.421875 -4.265625l8.53125 0q0.4375 1.71875 0.4375 4.265625q0 2.453125 -0.4375 4.28125l5.34375 0q0.421875 1.703125 0.421875 4.265625q0 2.453125 -0.421875 4.265625l5.328125 0q0.421875 1.703125 0.421875 4.265625q0 2.453125 -0.421875 4.265625l5.328125 0q0.421875 1.703125 0.421875 4.265625zm42.662518 0q0 2.453125 -0.421875 4.265625l-5.328125 0q0.421875 1.703125 0.421875 4.265625q0 2.453125 -0.421875 4.265625l-5.328125 0q0.421875 1.703125 0.421875 4.265625q0 2.453125 -0.421875 4.265625l-5.34375 0q0.4375 1.703125 0.4375 4.265625q0 2.453125 -0.4375 4.265625l-8.531246 0q-0.421875 -1.8125 -0.421875 -4.265625q0 -2.5625 0.421875 -4.265625l5.34375 0q-0.4375 -1.8125 -0.4375 -4.265625q0 -2.5625 0.4375 -4.265625l5.328121 0q-0.421875 -1.8125 -0.421875 -4.265625q0 -2.5625 0.421875 -4.265625l5.328125 0q-0.421875 -1.8125 -0.421875 -4.265625q0 -2.5625 0.421875 -4.265625l-5.328125 0q-0.421875 -1.8125 -0.421875 -4.265625q0 -2.5625 0.421875 -4.265625l-5.328121 0q-0.4375 -1.8125 -0.4375 -4.265625q0 -2.5625 0.4375 -4.265625l-5.34375 0q-0.421875 -1.828125 -0.421875 -4.28125q0 -2.546875 0.421875 -4.265625l8.531246 0q0.4375 1.71875 0.4375 4.265625q0 2.453125 -0.4375 4.28125l5.34375 0q0.421875 1.703125 0.421875 4.265625q0 2.453125 -0.421875 4.265625l5.328125 0q0.421875 1.703125 0.421875 4.265625q0 2.453125 -0.421875 4.265625l5.328125 0q0.421875 1.703125 0.421875 4.265625zm42.66252 0q0 2.453125 -0.421875 4.265625l-5.328125 0q0.421875 1.703125 0.421875 4.265625q0 2.453125 -0.421875 4.265625l-5.328125 0q0.421875 1.703125 0.421875 4.265625q0 2.453125 -0.421875 4.265625l-5.34375 0q0.4375 1.703125 0.4375 4.265625q0 2.453125 -0.4375 4.265625l-8.53125 0q-0.421875 -1.8125 -0.421875 -4.265625q0 -2.5625 0.421875 -4.265625l5.34375 0q-0.4375 -1.8125 -0.4375 -4.265625q0 -2.5625 0.4375 -4.265625l5.328125 0q-0.421875 -1.8125 -0.421875 -4.265625q0 -2.5625 0.421875 -4.265625l5.328125 0q-0.421875 -1.8125 -0.421875 -4.265625q0 -2.5625 0.421875 -4.265625l-5.328125 0q-0.421875 -1.8125 -0.421875 -4.265625q0 -2.5625 0.421875 -4.265625l-5.328125 0q-0.4375 -1.8125 -0.4375 -4.265625q0 -2.5625 0.4375 -4.265625l-5.34375 0q-0.421875 -1.828125 -0.421875 -4.28125q0 -2.546875 0.421875 -4.265625l8.53125 0q0.4375 1.71875 0.4375 4.265625q0 2.453125 -0.4375 4.28125l5.34375 0q0.421875 1.703125 0.421875 4.265625q0 2.453125 -0.421875 4.265625l5.328125 0q0.421875 1.703125 0.421875 4.265625q0 2.453125 -0.421875 4.265625l5.328125 0q0.421875 1.703125 0.421875 4.265625zm47.03752 21.328125q0.4375 1.703125 0.4375 4.265625q0 2.453125 -0.4375 4.265625l-34.125 0q-0.421875 -1.8125 -0.421875 -4.265625q0 -2.5625 0.421875 -4.265625l34.125 0z" fill-rule="nonzero"/></g></g></svg>